<?xml version="1.0" encoding="UTF-8"?><svg id="Layer_1" xmlns="http://www.w3.org/2000/svg" viewBox="0 0 1024 775.9"><defs><style>.cls-1{fill:#231f20;}</style></defs><g id="Penitent"><path class="cls-1" d="M40.87,582.43v55.92c0,2.27.51,3.99,1.54,5.17,1.03,1.17,2.86,2.12,5.49,2.86v3.52h-31.31v-3.52c2.64-.73,4.47-1.68,5.49-2.86,1.03-1.17,1.54-2.89,1.54-5.17v-127c0-2.2-.51-3.88-1.54-5.05-1.03-1.17-2.86-2.12-5.49-2.86v-3.52h78.88c11.06,0,19.67.59,25.82,1.76,6.15,1.17,11.65,3.3,16.48,6.38,5.05,3.08,9.12,7.29,12.19,12.63,3.44,6.01,5.16,12.74,5.16,20.21,0,10.25-3.15,19.04-9.45,26.37-4.83,5.64-10.97,9.58-18.4,11.81-7.43,2.24-18.04,3.35-31.8,3.35h-54.6ZM40.87,568.15h56.25c8.35,0,14.56-.33,18.62-.99,4.06-.66,7.71-1.94,10.93-3.84,7.47-4.39,11.21-11.75,11.21-22.08s-3.74-17.79-11.21-22.19c-3.22-1.9-6.85-3.19-10.88-3.85-4.03-.66-10.26-.99-18.68-.99h-56.25v53.94Z"/><path class="cls-1" d="M192.34,592.32v45.59h76.03c3.08,0,5.25-.47,6.54-1.4,1.28-.94,2.25-2.81,2.91-5.63h3.08v26.04h-3.08c-.66-2.78-1.61-4.65-2.86-5.6-1.25-.96-3.41-1.43-6.48-1.43h-98.88v-2.96c2.86-.73,4.74-1.74,5.66-3.02.92-1.28,1.37-3.42,1.37-6.43v-98.21c0-3.08-.48-5.24-1.43-6.48-.95-1.25-2.82-2.23-5.6-2.97v-2.96h98.11c3.08,0,5.24-.47,6.48-1.43,1.25-.95,2.23-2.82,2.97-5.6h2.97v26.04h-2.97c-.73-2.81-1.72-4.69-2.97-5.63-1.25-.94-3.41-1.4-6.48-1.4h-75.37v41.53h48.01c3.08,0,5.24-.47,6.48-1.43,1.25-.95,2.23-2.82,2.97-5.6h2.97v26.04h-2.97c-.73-2.81-1.74-4.69-3.02-5.62-1.28-.94-3.42-1.41-6.43-1.41h-48.01Z"/><path class="cls-1" d="M317.54,546.06v91.41c0,3.01.46,5.15,1.37,6.43.92,1.28,2.8,2.29,5.66,3.02v2.96h-27.14v-2.96c2.86-.73,4.74-1.74,5.66-3.02.92-1.28,1.37-3.42,1.37-6.43v-98.21c0-3.08-.48-5.24-1.43-6.48-.95-1.25-2.82-2.23-5.6-2.97v-2.96h39.99v2.96c-3.81,1.25-5.71,3.15-5.71,5.71,0,2.2,1.39,4.83,4.17,7.91l72.62,81.3v-85.47c0-3.08-.48-5.24-1.43-6.48-.95-1.25-2.82-2.23-5.6-2.97v-2.96h27.14v2.96c-2.78.74-4.65,1.72-5.6,2.97-.95,1.25-1.43,3.41-1.43,6.48v98.21c0,3.01.46,5.15,1.37,6.43.91,1.28,2.8,2.29,5.66,3.02v2.96h-32.19v-2.96c3.81-.95,5.71-2.46,5.71-4.51,0-1.54-1.76-4.28-5.27-8.24l-79.32-88.11Z"/><path class="cls-1" d="M455.71,637.47v-98.21c0-3.08-.48-5.24-1.43-6.48-.95-1.25-2.82-2.23-5.6-2.97v-2.96h29.77v2.96c-2.78.74-4.65,1.72-5.6,2.97-.95,1.25-1.43,3.41-1.43,6.48v98.21c0,3.01.48,5.15,1.43,6.43.95,1.28,2.82,2.29,5.6,3.02v2.96h-29.77v-2.96c2.78-.73,4.65-1.74,5.6-3.02.95-1.28,1.43-3.42,1.43-6.43Z"/><path class="cls-1" d="M555.43,539.47v98c0,3.01.46,5.15,1.37,6.43.91,1.28,2.8,2.29,5.66,3.02v2.96h-29.77v-2.96c2.78-.73,4.65-1.74,5.6-3.02.95-1.28,1.43-3.42,1.43-6.43v-98h-40.1c-3.08,0-5.24.47-6.48,1.41-1.25.94-2.24,2.82-2.97,5.62h-2.97v-26.04h2.97c.73,2.78,1.72,4.65,2.97,5.6,1.25.95,3.41,1.43,6.48,1.43h95.91c3.08,0,5.24-.47,6.48-1.43s2.24-2.82,2.97-5.6h2.96v26.04h-2.96c-.73-2.81-1.74-4.69-3.02-5.62-1.28-.94-3.42-1.41-6.43-1.41h-40.1Z"/><path class="cls-1" d="M641.75,592.32v45.59h76.03c3.08,0,5.26-.47,6.54-1.4,1.28-.94,2.25-2.81,2.91-5.63h3.08v26.04h-3.08c-.66-2.78-1.61-4.65-2.86-5.6-1.25-.96-3.4-1.43-6.48-1.43h-98.88v-2.96c2.86-.73,4.74-1.74,5.66-3.02.91-1.28,1.37-3.42,1.37-6.43v-98.21c0-3.08-.48-5.24-1.43-6.48s-2.82-2.23-5.6-2.97v-2.96h98.11c3.08,0,5.24-.47,6.48-1.43,1.25-.95,2.23-2.82,2.96-5.6h2.97v26.04h-2.97c-.73-2.81-1.72-4.69-2.96-5.63-1.25-.94-3.41-1.4-6.48-1.4h-75.37v41.53h48.01c3.08,0,5.24-.47,6.48-1.43s2.24-2.82,2.97-5.6h2.96v26.04h-2.96c-.73-2.81-1.74-4.69-3.02-5.62-1.28-.94-3.42-1.41-6.43-1.41h-48.01Z"/><path class="cls-1" d="M766.95,546.06v91.41c0,3.01.46,5.15,1.37,6.43.91,1.28,2.8,2.29,5.66,3.02v2.96h-27.13v-2.96c2.86-.73,4.74-1.74,5.66-3.02.91-1.28,1.37-3.42,1.37-6.43v-98.21c0-3.08-.48-5.24-1.43-6.48s-2.82-2.23-5.6-2.97v-2.96h39.99v2.96c-3.81,1.25-5.71,3.15-5.71,5.71,0,2.2,1.39,4.83,4.17,7.91l72.62,81.3v-85.47c0-3.08-.48-5.24-1.43-6.48-.95-1.25-2.82-2.23-5.6-2.97v-2.96h27.14v2.96c-2.79.74-4.65,1.72-5.6,2.97s-1.43,3.41-1.43,6.48v98.21c0,3.01.46,5.15,1.37,6.43.91,1.28,2.8,2.29,5.66,3.02v2.96h-32.19v-2.96c3.81-.95,5.71-2.46,5.71-4.51,0-1.54-1.76-4.28-5.27-8.24l-79.32-88.11Z"/><path class="cls-1" d="M954.89,539.47v98c0,3.01.46,5.15,1.37,6.43.92,1.28,2.8,2.29,5.66,3.02v2.96h-29.77v-2.96c2.78-.73,4.65-1.74,5.6-3.02.95-1.28,1.43-3.42,1.43-6.43v-98h-40.1c-3.08,0-5.24.47-6.48,1.41s-2.24,2.82-2.96,5.62h-2.97v-26.04h2.97c.73,2.78,1.72,4.65,2.96,5.6s3.41,1.43,6.48,1.43h95.91c3.08,0,5.24-.47,6.48-1.43,1.25-.95,2.23-2.82,2.96-5.6h2.97v26.04h-2.97c-.73-2.81-1.74-4.69-3.02-5.62-1.28-.94-3.42-1.41-6.43-1.41h-40.1Z"/></g><g id="Games"><path class="cls-1" d="M386.24,724.04c.7.55.95,1.1.75,1.65-.05.15-.15.22-.3.22-.4,0-.52.13-.38.38.15.25.07.54-.22.86-.3.33-.65.49-1.05.49-.25,0-.39.03-.41.08s.06.2.26.45c.45.6.61,1.4.49,2.4-.12,1-.66,2.65-1.61,4.95-.65,1.6-.97,2.67-.97,3.23,0,.45-.11.99-.34,1.61-.22.63-.44.94-.64.94s-.26.19-.19.56-.16.81-.71,1.31c-.65.6-.9,1.05-.75,1.35.05.05.15.03.3-.07.25-.15.38-.15.38,0,.05.35-.25.8-.9,1.35-.45.4-.63.63-.52.68.05,0,.12-.03.22-.08.25-.1.39-.12.41-.07.02.05-.06.22-.26.52-.25.45-.7.62-1.35.52-.45-.1-.73-.11-.82-.04-.1.08-.13.24-.07.49.1.4.35.6.75.6.2-.05.31-.04.34.04.02.08-.01.19-.11.34-.25.3-.22.5.08.6.45.15.32.42-.38.83-.4.2-.8.3-1.2.3-.95.1-1.42.33-1.42.68,0,.1.07.17.22.22.25.15.36.36.34.64-.03.28-.14.24-.34-.11-.2-.35-.3-.4-.3-.15s.08.45.23.6c.3.3.38.8.23,1.5-.05.15-.13.2-.23.15-.15-.1-.42-.05-.82.15-.4.2-.79.26-1.16.19-.38-.08-.56-.34-.56-.79s-.12-.68-.38-.68c-.15,0-.25-.15-.3-.45-.05-.3-.04-.7.04-1.2s.21-.95.41-1.35c.4-1.05.47-1.57.22-1.57-.2-.05-.5.33-.9,1.12-.45.85-.7,1.25-.75,1.2-.05-.3.1-.79.45-1.46.35-.67.47-1.16.38-1.46-.1-.3-.06-.5.11-.6.17-.1.31-.38.41-.82.1-.35.1-.53,0-.53s-.38.13-.82.38c-.55.3-.82.38-.82.23,0-.05.02-.1.07-.15l.07-.3-.3.3c-.3.25-.45.57-.45.98,0,.5-.71,1.04-2.14,1.61s-2.86.91-4.31,1.01c-1.45.15-2.1.3-1.95.45.2.15.2.25,0,.3h-.3c-.5,0-.75-.08-.75-.23s-.38-.25-1.12-.3c-1.55,0-3.51-.88-5.89-2.62-2.38-1.75-3.99-3.5-4.84-5.25l-.83-1.43c0,.2-.12.2-.38,0-.55-.6-.8-3.42-.75-8.48,0-2.4.06-4.1.19-5.1.13-1,.46-2.58,1.01-4.73,1.7-6.55,4.42-12.08,8.17-16.58s7.65-6.9,11.7-7.2c1.55-.1,2.32-.25,2.32-.45.05-.05.25-.06.6-.04.35.03.8.1,1.35.23.55.13,1.02.26,1.43.41,1,.4,2.14,1.32,3.41,2.77,1.28,1.45,1.91,2.55,1.91,3.3,0,.4-.03.62-.07.64-.05.03-.15-.16-.3-.56-.2-.5-.33-.75-.38-.75v3c.1,2,.04,3-.19,3s-.39-.21-.49-.64c-.1-.42-.29-.64-.56-.64s-.34.28-.19.82c.1.4.12.63.07.68s-.22,0-.52-.15c-.45-.25-1.08-.88-1.88-1.88-.9-1.1-2-1.79-3.3-2.06-1.3-.28-2.65-.11-4.05.49-.8.4-1.95,1.38-3.45,2.92-1.5,1.55-2.8,3.15-3.9,4.8-.8,1.25-1.63,2.87-2.48,4.88-.85,2-1.3,3.35-1.35,4.05,0,.5-.1,1.05-.3,1.65-.25.65-.53,1.98-.82,3.98-.05.45-.09.76-.11.94-.03.18-.19.19-.49.04-.35-.25-.25.78.3,3.08.1.5.02.75-.23.75s-.33-.18-.22-.53c.05-.2.02-.3-.08-.3-.25.15-.38.45-.38.9,0,.15.04.28.11.38.07.1.16.11.26.04s.18-.01.23.19.1.5.15.9c0,.85.02,1.44.08,1.76.05.33.1.7.15,1.12s.24.57.56.45c.33-.12.61.05.86.53.25.47.54.87.86,1.2.32.33.66.75,1.01,1.27.35.53.75.91,1.2,1.16l.38.08c-.05-.1-.23-.25-.52-.45-.4-.4-.58-.6-.53-.6.15,0,.75.25,1.8.75.5.25.85.48,1.05.68.2.2.29.41.26.64-.03.23.04.41.19.56.15.15.45.28.9.38.8.25,1.28.5,1.43.75.1.1.17.1.23,0,0-.1-.03-.22-.07-.38-.1-.45.02-.76.38-.94.35-.17.9-.23,1.65-.19.6-.05.9-.15.9-.3-.15-.25-.41-.33-.79-.23-.38.1-.71.06-1.01-.11-.3-.18-.15-.34.45-.49.25-.05.44-.13.56-.26.12-.13.16-.26.11-.41-.1-.35.85-1.12,2.85-2.33.2-.15.31-.21.34-.19.02.03-.09.16-.34.41-.2.3-.28.45-.22.45.1,0,.35-.08.75-.23.5-.25,1.1-.71,1.8-1.39.7-.67,1.03-1.16.98-1.46,0-.2-.07-.17-.23.08-.15-.05-.25-.23-.3-.52,0-.65.12-1,.38-1.05.15,0,.3.23.45.68.1.5.25.6.45.3.35-.6.4-.9.15-.9-.05,0-.11.03-.19.07-.07.05-.14,0-.19-.15-.1-.2-.18-.47-.22-.82-.1-.8-.05-1.25.15-1.35.5-.35.5-.52,0-.52-.25,0-.58.05-.97.15-.85.3-1.69.52-2.51.67-.82.15-1.24.35-1.24.6-.05.15-.24.21-.56.19-.33-.02-.71-.11-1.16-.26-.45-.15-.78-.32-.98-.52l-.3-.38s.15.03.3.08l.15.07c0-.1-.13-.27-.38-.52-.5-.5-.69-.85-.56-1.05.12-.2.07-.3-.15-.3s-.41-.35-.56-1.05c-.15-.65.02-1.5.53-2.55.5-1.05,1-1.58,1.5-1.58.75-.1,1.79-.34,3.11-.71,1.32-.38,2.31-.74,2.96-1.09,1.4-.75,2.75-.95,4.05-.6.4.15.61.21.64.19.02-.03-.11-.16-.41-.41-.3-.35-.33-.52-.07-.52.5,0,1.12-.13,1.88-.38.45-.1.73-.14.82-.11.1.03.15.16.15.41,0,.45.2.83.6,1.12.25.1.35.1.3,0-.15-.25-.11-.44.11-.56.23-.12.27-.3.15-.52s-.06-.34.19-.34.3-.1.15-.3c-.15-.25-.15-.38,0-.38.35.05.86.43,1.54,1.12.68.7,1.14.9,1.39.6.2-.25.27-.35.22-.3l-.22.07c-.25.15-.38.1-.38-.15s.22-.33.67-.23c.3.05.45,0,.45-.15-.1-.2-.03-.3.22-.3.35.05.7.2,1.05.45ZM359.16,749.31c.35.2.55.29.6.26s.02-.11-.07-.26c-.15-.25-.36-.38-.64-.38s-.24.12.11.38ZM372.4,745.15c.52-.62.74-1.01.64-1.16-.1-.1-.3-.02-.6.23s-.58.54-.82.86c-.25.33-.33.54-.23.64.15.25.49.06,1.01-.56ZM376.04,706.79c-.15-.4-.33-.5-.53-.3-.2.15-.25.42-.15.83.15.45.34.56.56.34s.26-.51.11-.86ZM379.82,708.4c-.22.23-.34-.11-.34-1.01.05-.65.09-.98.11-.98.02,0,.11.23.26.68.2.65.19,1.09-.04,1.31Z"/><path class="cls-1" d="M455.84,759.74c.05,1.25.25,2.15.6,2.7.2.3.17.57-.07.82-.25.25-.38.62-.38,1.12-.05.45-.15.65-.3.6-.2-.1-.35-.03-.45.23-.1.25-.26.23-.49-.08-.23-.3-.44-.82-.64-1.57-.1-.55-.2-.83-.3-.83-.05-.05-.13,0-.23.15-.15.3-.28.28-.38-.07-.8-2.4-1.2-3.84-1.2-4.31s-.2-1.42-.6-2.81c-.4-1.4-.7-2.25-.9-2.55-.25-.3-.54-.45-.86-.45s-.51-.3-.56-.9c-.1-.95-.25-1.81-.45-2.59-.2-.78-.38-1.16-.52-1.16-.25.05-.68-1.16-1.28-3.64-.6-2.48-1.01-3.86-1.24-4.16-.22-.3-.26-.45-.11-.45s.06-.19-.26-.56-.56-1.06-.71-2.06c-.25-1.55-.73-3.62-1.43-6.22-.7-2.6-1.15-3.95-1.35-4.05-.3-.1-1.2.13-2.7.68-2.15.85-4.6,1.68-7.35,2.47-.3.05-.66.56-1.09,1.54s-.86,1.66-1.31,2.06c-.45.4-.67.71-.67.94s.17.14.52-.26c.35-.45.5-.55.45-.3,0,.25-.2.73-.6,1.43-.45.75-.88,1.09-1.28,1.01-.4-.07-.85.03-1.35.3-.5.28-.64.56-.41.86s.39.94.49,1.91c.1.98-.13,1.79-.68,2.44-.4.5-.6.65-.6.45.1-.25.1-.38,0-.38s-.38.1-.82.3c-1.4.7-1.88,1.32-1.43,1.88.2.25.21.64.04,1.16-.17.52-.39.79-.64.79s-.38.11-.38.34.11.28.34.15c.23-.13.34-.08.34.15s-.1.34-.3.34-.36.28-.49.83c-.12.55-.39.82-.79.82s-.67.09-.82.26c-.15.18-.45.29-.9.34-.4.05-.63-.07-.68-.38-.05-.3.07-.72.38-1.27.25-.45.25-.75,0-.9-.45-.3.07-2.1,1.57-5.4.45-1.05.7-1.73.75-2.03.05-.3-.02-.55-.22-.75-.35-.35-.39-.88-.11-1.61.28-.72.51-1.19.71-1.39.35-.4.4-.72.15-.97-.05-.1-.12-.1-.23,0-.1.05-.15,0-.15-.15s.1-.47.3-.97c.4-.85.69-1.55.86-2.1.18-.55.43-1.21.75-1.99.33-.77.46-1.44.41-1.99s.22-1.44.82-2.66c.6-1.22,1.32-2.96,2.18-5.21,1.65-4.55,3.2-8.6,4.65-12.15,1-2.3,1.55-3.74,1.65-4.31.1-.57.38-1.12.82-1.65.45-.53.71-.85.79-.98.08-.13.41-.46,1.01-1.01l.97-.9-.6,1.05c-.35.5-.5.76-.45.79.05.03.2-.06.45-.26.45-.35.82-.7,1.12-1.05.2-.2.35-.3.45-.3s.22.15.38.45c.15.3.26.45.34.45s.14-.12.19-.38c.05-.1.11-.18.19-.23s.19-.05.34,0c.15.05.32.15.52.3.2.15.5.35.9.6.75.55,1.62,1.44,2.62,2.66,1,1.23,1.5,2.01,1.5,2.36,0,.15.15.52.45,1.12s.52,1.37.67,2.32c.15.95.38,2,.68,3.15.3,1.1.57,2.29.82,3.56.25,1.28.57,1.91.98,1.91.25,0,.38-.02.38-.07s-.1-.13-.3-.23c-.3-.2-.28-.3.07-.3.15-.05.33-.07.53-.07.4,0,.68.04.82.11.15.08.17.21.07.41-.1.35.06.52.49.52s.64.1.64.3.23.3.68.3c.2,0,.34-.04.41-.11.07-.08.09-.19.04-.34-.1-.25.01-.45.34-.6.32-.15.56-.1.71.15.15.2.45.13.9-.23.25-.3.45-.45.6-.45s.42.15.82.45c.6.35.84.59.71.71s-.06.34.19.64c.25.3.07.52-.53.67-.2.05-.38.14-.52.26-.15.13-.2.24-.15.34.1.2-.14.44-.71.71-.58.28-1.29.51-2.14.71-.8.15-1.33.38-1.57.68-.25.2-.18.3.22.3h1.12c1.15-.1,1.22-.06.23.11-1,.18-1.54.39-1.61.64-.07.25-.31.38-.71.38-.85,0-.93.7-.23,2.1.35.6.56,1.26.64,1.99.07.73.17,1.15.3,1.28.12.12.26.61.41,1.46.15.7.15,1.05,0,1.05-.05,0-.1-.02-.15-.07-.15-.1-.25-.1-.3,0,0,.05.02.18.08.38.15.35.22.59.22.71s.12.11.38-.04.35-.02.3.38c-.05.1-.07.18-.07.23-.05.5,0,.72.15.67l.23.6c.05.35.07.8.07,1.35,0,1.4.1,2.55.3,3.45.1.6.2.93.3.98.1.05.12-.4.07-1.35v-.97l.38.82c.25.55.35,1.65.3,3.3,0,1.7.15,2.5.45,2.4.1,0,.2-.15.3-.45.05-.15.1-.1.15.15v.53c.05.7.14,1.22.26,1.57.12.35-.04.52-.49.52s-.74.26-.86.79c-.13.52-.26.99-.41,1.39-.05.3-.03.42.07.38.2-.15.49-.1.86.15.38.25.51.52.41.83-.15.3-.04.45.34.45s.56.18.56.52.16.53.49.53.49.55.49,1.65-.13,1.65-.38,1.65c-.55,0-.94.44-1.16,1.31-.23.87-.09,1.39.41,1.54.3.15.4.4.3.75-.15.4-.1.7.15.9.1.1.2.08.3-.08.05-.1.1-.07.15.08s.07.4.07.75ZM419.99,741.06c-.8,1.4-1.22,2.1-1.28,2.1-.05,0-.07-.1-.07-.3,0-.25.2-.74.6-1.46s.75-1.34,1.05-1.84c.05-.15.11-.28.19-.38.08-.1.19-.2.34-.3.15.1-.12.83-.82,2.18ZM422.54,745.71c.1-.1.1-.3,0-.6-.05-.2-.1-.25-.15-.15s-.07.2-.07.3c.05.3.12.45.22.45ZM425.46,739.49c.05-.1.05-.18,0-.23s-.15-.07-.3-.07c-.4,0-.52.1-.38.3.15.2.26.3.34.3s.19-.1.34-.3ZM426.66,738.85c0-.22.11-.4.34-.52.22-.12.34-.07.34.15s-.11.4-.34.53c-.23.12-.34.07-.34-.15ZM439.34,719.16c.3-.25.44-.57.41-.97-.03-.4-.21-1.4-.56-3l-.75-3.45-1.5,3.45c-1.75,3.9-2.43,5.75-2.03,5.55.15-.1.65-.34,1.5-.71s1.46-.52,1.84-.45c.38.08.74-.06,1.09-.41ZM440.99,702.7c0,.33.11.41.34.26s.34-.39.34-.71-.11-.41-.34-.26-.34.39-.34.71ZM448.34,718.19c.35.2.55.29.6.26.05-.02-.05-.19-.3-.49-.3-.35-.51-.46-.64-.34-.13.12-.01.31.34.56ZM450.36,754.04c.1.75.1,1.12,0,1.12-.05-.05-.13-.22-.23-.52-.15-.3-.18-.65-.07-1.05.05-.35.12-.28.22.23.05.05.08.12.08.22ZM450.44,757.19v-1.2s.12.3.22.75c.3.95.35,1.68.15,2.17-.05.1-.1.08-.15-.07-.05-.1-.12-.65-.22-1.65ZM454.07,751.19c.23-.25.29-.45.19-.6-.2-.15-.4-.14-.6.04-.2.17-.25.36-.15.56.15.25.34.25.56,0ZM454.71,749.01l.15-.6v.15c.1.4.1.75,0,1.05-.05.1-.1.05-.15-.15v-.45ZM455.09,753.29c-.1.1-.07.28.07.53.15.25.26.36.34.34.07-.03.06-.19-.04-.49-.15-.35-.28-.47-.38-.38ZM456.25,760.19c.22,0,.41.1.56.3.15.2.11.3-.11.3s-.41-.1-.56-.3-.11-.3.11-.3Z"/><path class="cls-1" d="M532.64,698.65c0,.47.05,1.36.15,2.66.1,1.3-.01,2.26-.34,2.89-.33.63-.59,1.43-.79,2.4-.2.98-.52,2.41-.98,4.31-.6,2.15-.95,5-1.05,8.55-.05.7-.15,1.03-.3.98-.2-.05-.3.05-.3.3,0,.15.05.35.15.6.15.4.08,1.05-.23,1.95-.2.75-.31,1.38-.34,1.88-.03.5.04,1.53.19,3.08.2,2.45-.08,3.67-.83,3.67-.35,0-.61.21-.79.64-.18.42-.16.79.04,1.09.35.6.28,1.1-.22,1.5-.35.25-.43.39-.23.41.2.03.5-.16.9-.56.3-.25.49-.38.56-.38s.11.15.11.45c0,.35.13.45.38.3.2-.1.28-.02.23.23,0,.1-.03.23-.07.38-.15.5-.23.89-.23,1.16s-.16.41-.49.41-.49.16-.49.49-.18.55-.52.67c-.35.13-.52.4-.52.83s.17.7.52.82c.35.13.52.39.52.79,0,.25-.03.38-.08.38s-.15-.1-.3-.3c-.2-.3-.3-.33-.3-.08s.11.45.34.6.26.33.11.52c-.05.1-.04.18.04.23s.21.08.41.08c.4,0,.44.1.11.3s-.41.5-.26.9c.15.4.02.83-.38,1.27-.2.3-.25.43-.15.38.15-.05.24-.05.26,0,.02.05.01.15-.04.3-.15.35-.38.47-.67.38-.3-.1-.45-.05-.45.15s-.1.3-.3.3-.38-.45-.52-1.35c-.2-.8-.38-1.12-.53-.98-.15.25-.3.13-.45-.38-.3-.85-.52-2.25-.68-4.2-.1-1.35-.22-2.25-.38-2.7-.15-.45-.38-.68-.67-.68s-.47-.7-.52-2.1c-.05-1.05-.15-1.57-.3-1.57-.15.2-.25-.1-.3-.9v-6c0-.15-.11-.29-.34-.41s-.18-1.58.15-4.35.49-4.61.49-5.51v-1.35l-.6.82c-.75.95-1.73,2.44-2.93,4.46-1.2,2.03-1.8,3.19-1.8,3.49,0,.45-.38.9-1.12,1.35-.95.6-1.48.82-1.57.67l.38-.3c.35-.2.38-.3.07-.3s-.52.21-.68.64c-.15.42-.35.64-.6.64-.35.05-.69.15-1.01.3s-.49.28-.49.38c0,.2-.16.24-.49.11-.33-.12-.49-.34-.49-.64s-.15-.38-.45-.23c-.2.05-.36-.03-.49-.23-.13-.2-.26-.55-.41-1.05-.35-1.4-.57-2.07-.67-2.03-.1,0-.2.3-.3.9l-.23,1.35-.07-1.27c-.05-.85-.18-1.27-.38-1.27s-.3-.28-.3-.83-.18-.82-.52-.82-.53-.2-.53-.6-.21-1.01-.64-1.84c-.42-.83-.76-1.79-1.01-2.89-.3-.95-.55-1.42-.75-1.42-.2.2-.44.91-.71,2.14-.28,1.23-.39,2.06-.34,2.51.05.4-.14,1.42-.56,3.08-.42,1.65-.75,3.33-.97,5.02-.23,1.7-.51,3.88-.86,6.52-.35,2.65-.45,4.3-.3,4.95.1.6-.03,1.34-.38,2.21-.35.88-.7,1.29-1.05,1.24s-.65.15-.9.6c-.2.4-.35.67-.45.83-.05.05-.23-.05-.53-.3-.5-.4-.7-.27-.6.38.05.15-.29.13-1.01-.07-.72-.2-1.11-.3-1.16-.3s-.38-.6-.98-1.8c-.4-.75-.65-1.39-.75-1.91-.1-.52-.12-1.36-.07-2.51,0-1.85.23-3.92.68-6.22s.7-4.15.75-5.55c.15-2.15.35-3.23.6-3.23.2.15.38.1.53-.15.15-.25.07-.47-.23-.67s-.26-.38.11-.52c.38-.15.56-.33.56-.53s-.1-.22-.3-.07c-.1.05-.12,0-.07-.15,0-.15.05-.4.15-.75.25-.7.46-.9.64-.6.17.3.26.09.26-.64s-.13-1.01-.38-.86c-.15.1-.23.03-.23-.23,0-.75.27-1.42.82-2.02.35-.4.45-.7.3-.9-.15-.3-.06-.73.26-1.28.33-.55.64-.77.94-.67.35.1.73.01,1.12-.26.4-.27.46-.65.19-1.12-.28-.47-.54-.64-.79-.49-.2.1-.25.1-.15,0,0-.05.05-.12.15-.23.5-.5.62-.9.38-1.2-.05-.05-.15-.03-.3.07-.1.05-.18.08-.23.08,0-.05.08-.23.23-.52.4-.65.75-1.09,1.05-1.31.3-.23.68-.31,1.12-.26.45,0,.74-.06.86-.19s.19-.41.19-.86c0-.7.1-1.15.3-1.35h.15c-.05.05-.1.13-.15.23-.05.15-.05.22,0,.22.35-.3.47-.72.38-1.27,0-.15-.07-.2-.22-.15-.2.15-.3.11-.3-.11s.17-.34.52-.34.47-.29.38-.86-.02-.94.23-1.09c.1-.05.15-.05.15,0s-.02.13-.07.23c-.2.3-.05.5.45.6.3.05.55.03.75-.07.85-.55,1.35-.47,1.5.23.1.4.42.6.98.6.45,0,.99.18,1.61.53.62.35,1.09.72,1.39,1.12.35.5.68,1.9.98,4.2.15.9.42,1.7.82,2.4.3.5.57,1.2.82,2.1.25.9.33,1.5.23,1.8-.05.2-.05.28,0,.22.35-.05.77-.65,1.27-1.8.6-1.4,1.2-2.3,1.8-2.7.15-.1.23-.08.23.04s.08.04.23-.26c.05-.05.1-.15.15-.3.3-.55.75-.98,1.35-1.27s.9-.56.9-.79-.13-.24-.38-.04c-.15.1-.23.1-.23,0,.05-.05.13-.17.23-.38.35-.4.85-.75,1.5-1.05l.6-.38-.15.08c-.35.1-.53.07-.53-.08,0-.2.2-.42.6-.67.45-.25.85-.2,1.2.15.35.3.65.41.9.34.25-.08.4-.36.45-.86,0-.3-.04-.49-.11-.56-.07-.08-.26-.06-.56.04-.3.05-.42.06-.38.04.05-.02.23-.14.52-.34.55-.35.68-.52.38-.52-.05,0-.12-.03-.22-.08-.45,0-.29-.16.49-.49.77-.33,1.24-.36,1.39-.11.3.45.57.4.82-.15.1-.2.15-.42.15-.67,0-.55.1-1.08.3-1.58.15-.45.61-1.11,1.39-1.99.78-.88,1.26-1.31,1.46-1.31s.08.24-.34.71-.39.59.11.34c.5-.25.85-.57,1.05-.98.15-.25.26-.38.34-.38s.19.1.34.3c.25.35.47.36.67.04s.64-.13,1.31.6c.67.73,1.01,1.33,1.01,1.8ZM494.84,741.25c.35-.28.47-.46.38-.56-.15-.15-.34-.14-.56.04-.23.18-.34.36-.34.56,0,.25.18.24.53-.04ZM496.82,712.56c-.13.2-.08.3.15.3s.34-.1.34-.3-.05-.3-.15-.3-.21.1-.34.3ZM499.67,708.81c.42-.25.59-.42.49-.53-.1-.1-.3-.02-.6.23-.3.25-.55.3-.75.15-.05-.1-.09-.12-.11-.07-.03.05.01.13.11.23.15.25.44.25.86,0ZM506.16,702.25c-.15.22-.1.34.15.34s.38-.11.38-.34-.05-.34-.15-.34-.23.11-.38.34ZM522.73,738.74l.15-1.27v.23c.1.8.1,1.57,0,2.32-.05.35-.08.33-.08-.07-.05-.25-.08-.65-.08-1.2ZM528.66,729.74c0-.35-.11-.46-.34-.34-.23.13-.26.29-.11.49.3.55.45.5.45-.15ZM530.84,698.61c.1.15.26.18.49.08.22-.1.34-.25.34-.45s-.16-.24-.49-.11c-.33.12-.44.29-.34.49Z"/><path class="cls-1" d="M609.36,699.66c.1.3.11.5.04.6-.08.1-.31.15-.71.15-.45,0-.65.08-.6.23.15.15-.03.33-.52.52-.9.35-1.95.53-3.15.53-.8,0-1.3.05-1.5.15s-.35.33-.45.67c-.1.4-.24.65-.41.75-.18.1-.56.15-1.16.15-.75,0-1.12.08-1.12.23.05.1-.03.18-.23.23-.25.15-.62.25-1.12.3-2.5.35-3.75.75-3.75,1.2,0,.15-.52.25-1.57.3-1.35.05-3.08.3-5.18.75-.7.15-1.14.3-1.31.45s-.31.47-.41.98c-.1.7-.28,1.37-.53,2.02-1.15,3.35-1.72,5.2-1.72,5.55,0,.05.17.09.52.11.35.03.7.01,1.05-.04s.57-.12.68-.23c.15-.15.6-.15,1.35,0,.65.1.98.1.98,0,0-.05-.03-.12-.07-.23-.1-.15-.13-.25-.08-.3s.18-.02.38.08c.4.15.6.14.6-.04s.47-.29,1.42-.34c.65-.05,1.06-.03,1.24.07.17.1.29.3.34.6.1.5.45.75,1.05.75.6.05.9-.02.9-.23.05-.15-.05-.25-.3-.3-.2-.1-.15-.36.15-.79.3-.42.71-.51,1.24-.26.52.25.65.39.38.41-.28.03-.21.26.19.71.6.6,1.17.8,1.72.6.2-.05.28-.17.23-.38-.05-.2-.03-.33.08-.38.1-.05.3-.05.6,0,.6.05,1.05.09,1.35.11.3.02.38.14.23.34s-.11.3.11.3.4.24.52.71c.12.48-.04.78-.49.9-.45.12-.67.31-.67.56,0,.55-.9.82-2.7.82-.85,0-1.27.11-1.27.34s.2.34.6.34.28.18-.38.52-1.27.52-1.88.52c-.4,0-.6.03-.6.08s.08.12.23.22c.2.1.05.23-.45.38-.15.05-.33.08-.52.08-.95.15-1.71.39-2.29.71s-2.21.76-4.91,1.31c-1.65.4-2.78.71-3.38.94-.6.23-1.05.51-1.35.86-.8,1-.95,1.45-.45,1.35.05,0,.13-.02.23-.07.2-.05.33-.03.38.07-.6.95-.95,1.85-1.05,2.7-.15.85-.5,1.53-1.05,2.02-.15.1-.25.1-.3,0-.2-.35-.58-.38-1.12-.07-.3.2-.33.55-.08,1.05.2.4.23.6.08.6-.2-.15-.45-.03-.75.38l-.23.38.23-.23c.4-.35.77-.38,1.12-.08.15.1.17.23.07.38-.15.15-.07.23.23.23s.2.35-.3,1.05c-.25.35-.45.52-.6.52-.3,0-.73.14-1.27.41-.55.28-.88.49-.98.64-.15.2.02.28.52.23,1.35-.05,2.72-.38,4.12-.98.35-.15.65-.27.9-.38.25-.1.46-.17.64-.23.18-.05.26-.05.26,0,0,.1.19,0,.56-.3s.6-.31.67-.04c.08.28.23.41.45.41s.26-.1.11-.3c-.1-.15.05-.3.45-.45.6-.25,1.17-.3,1.72-.15.4.1.75.06,1.05-.11.3-.17.23-.29-.23-.34-.4,0-.45-.05-.15-.15.05-.05.15-.1.3-.15.55-.25,1.12-.3,1.73-.15.35.05.52.06.52.04,0-.02-.07-.08-.23-.19-.35-.25-.34-.38.04-.38s.74-.05,1.09-.15c.2-.1.33-.11.38-.04.05.08.05.24,0,.49-.1.45-.05.67.15.67s.5.08.9.23c.2.1.33.14.38.11.05-.02.02-.11-.08-.26-.15-.25-.03-.38.38-.38l.45-.08c-.05-.1-.2-.25-.45-.45-.3-.3-.33-.45-.07-.45.15,0,.26-.04.34-.11.07-.08.08-.16.04-.26-.1-.1-.03-.18.22-.23.15-.05.35-.07.6-.07.65,0,.95.05.9.15-.1.15.06.44.49.86s.76.64,1.01.64.3-.08.15-.23c-.15-.15-.1-.38.15-.67.25-.3.5-.45.75-.45s.21.11-.11.34-.35.34-.07.34.47-.15.6-.45c.12-.3.44-.42.94-.38.3.05.6.15.9.3.3.15.52.33.67.52.15.2.18.35.08.45,0,.1.07.18.23.23.6,0,.25.45-1.05,1.35-.85.6-1.63,1.03-2.32,1.27-1.25.4-1.9.78-1.95,1.12-.05.15.18.18.67.07.15-.05.23-.05.23,0,0,.05-.25.2-.75.45-.9.45-1.5.69-1.8.71-.3.03-.38.14-.23.34.05.1.01.21-.11.34-.13.12-.34.24-.64.34-.7.25-1.3.49-1.8.71-.5.23-.88.42-1.12.6-.25.18-.35.31-.3.41.05.05.05.1,0,.15s-.11.09-.19.11c-.07.03-.19.04-.34.04-.5,0-1.7.33-3.6.98-3.75,1.25-6.57,1.97-8.48,2.17-1.25.15-1.88.33-1.88.52,0,.15-.14.24-.41.26-.28.03-.62,0-1.01-.08-.4-.07-.8-.21-1.2-.41-.7-.3-1.05-.51-1.05-.64s.11-.12.34,0c.23.13.34.08.34-.15s-.24-.4-.71-.52c-.47-.13-.66-.4-.56-.83s.05-.64-.15-.64c-.55,0-.55-.62,0-1.88.2-.55.47-1.02.83-1.42.75-.8,1.42-1.88,2.02-3.23s.8-2.27.6-2.77c-.05-.2-.25,0-.6.6-.25.45-.6,1.22-1.05,2.32l-.3.6s-.08-.2-.08-.45c0-.45.18-.93.53-1.43.35-.5.56-1.1.64-1.8.08-.7.23-1.36.45-1.99.23-.62.27-1.09.15-1.39-.13-.3.01-1.15.41-2.55.25-.9.39-1.58.41-2.06.02-.47-.06-1.19-.26-2.14-.25-1.25-.3-2.15-.15-2.7.15-.55.6-1.2,1.35-1.95s1.41-2.2,1.99-4.35,1.01-3.68,1.31-4.58c.35-1,.4-1.5.15-1.5-.1.05-.3.15-.6.3-.4.25-1.01.29-1.84.11-.82-.18-1.51-.49-2.06-.94-.35-.3-.51-.46-.49-.49.02-.03.24.01.64.11.4.1.61.14.64.11.02-.02-.11-.16-.41-.41-.45-.35-.78-.45-.98-.3-.1.1-.18.05-.22-.15,0-.1.05-.28.15-.52.15-.6.1-.85-.15-.75-.15.1-.25.05-.3-.15-.05-.15-.07-.35-.07-.6,0-.65.42-1.37,1.27-2.18.75-.75,1.44-1.26,2.06-1.54.62-.28,1.46-.41,2.51-.41,1.1-.05,1.76-.14,1.99-.26.23-.12,1.06-.23,2.51-.3,1.45-.08,2.62-.26,3.53-.56.7-.2,1.34-.36,1.91-.49.57-.12,1.04-.19,1.39-.19s.52.05.52.15c0,.25.11.38.34.38s.29-.1.19-.3c-.15-.25,0-.4.45-.45.5-.1,1.12-.08,1.88.07,1.55.4,2.17.45,1.88.15-.05-.1-.18-.2-.38-.3-.45-.3-.57-.45-.38-.45s.67.03,1.42.08c1.1.05,1.6,0,1.5-.15-.15-.1-.07-.18.23-.23.2-.05.5-.08.9-.08.75.05,1.1.15,1.05.3-.35.2-.51.38-.49.52.03.15.21.38.56.67.45.3.8.35,1.05.15.25-.2.57-.23.98-.08.4.15.52.09.38-.19-.15-.28-.43-.41-.83-.41-.35,0-.4-.07-.15-.23.05-.05.12-.1.23-.15.45-.25.75-.49.9-.71s.55-.24,1.2-.04c.3.15.47.28.53.38-.3.1-.18.38.38.83.95.7,1.45.8,1.5.3,0-.2.17-.35.52-.45.15-.05.25-.05.3,0s.05.15,0,.3c-.1.2-.03.3.23.3s.62-.15,1.12-.45c.45-.25.9-.21,1.35.11.45.33.75.81.9,1.46ZM573.13,703.38c.15.22.28.34.38.34s.15-.11.15-.34-.12-.34-.38-.34-.3.11-.15.34ZM573.47,720.4c.13.23.24.34.34.34s.15-.11.15-.34-.11-.34-.34-.34-.28.11-.15.34ZM579.13,730.04c.1,0,.21-.11.34-.34.13-.23.08-.34-.15-.34s-.34.11-.34.34.05.34.15.34ZM596.38,737.09c.35,0,.5.07.45.23-.1.1-.25.18-.45.22-.2.05-.38.06-.52.04-.15-.02-.23-.08-.23-.19,0-.2.25-.3.75-.3ZM597.13,720.03c.15-.23.33-.26.52-.11.5.3.42.45-.22.45-.35,0-.45-.11-.3-.34ZM602.91,702.47c.3-.12.5-.11.6.04.1.05.08.1-.07.15h-.3c-.45,0-.52-.06-.23-.19ZM604.63,702.55c.2-.23.45-.19.75.11.1.1.14.18.11.23-.03.05-.19.08-.49.08-.45-.05-.57-.19-.38-.41ZM606.81,697.94c-.05.1-.1.05-.15-.15v-.3c0-.25.03-.35.08-.3.05,0,.1.05.15.15.1.3.08.5-.07.6Z"/><path class="cls-1" d="M676.19,727.94c.45-.55.55-.5.3.15-.05.2-.15.47-.3.82-.35.75-1.38,1.83-3.08,3.23-1.7,1.4-3.33,2.48-4.88,3.23-1.6.75-2.53,1.25-2.77,1.5l.08.08c.2-.05.55-.2,1.05-.45.85-.4,1.27-.55,1.27-.45.05.2-.93.85-2.92,1.95-2.35,1.3-3.42,1.65-3.23,1.05,0-.1.03-.17.08-.22.2-.3.05-.38-.45-.23-.3.05-.8.23-1.5.52-1.05.45-1.65.67-1.8.67-.55-.1-.85-.07-.9.08,0,.1.1.23.3.38.3.25.45.41.45.49s-.15.19-.45.34c-.4.25-.5.39-.3.41.2.03.07.19-.38.49-.3.25-.45.39-.45.41,0,.02.18-.01.52-.11.3-.05.42-.07.38-.07,0,.05-.07.12-.23.22-.3.25-.65.28-1.05.08-.35-.2-.88-.24-1.58-.11-.7.12-1.05.31-1.05.56,0,.3.6.2,1.8-.3.3-.1.45-.12.45-.07.05.05.02.12-.08.22-.05.15-.05.25,0,.3.1-.05.19-.04.26.04.08.07.11.19.11.34.05.25-.16.52-.64.82-.48.3-1.31.73-2.51,1.28-2.15,1-3.28,1.42-3.38,1.27s-.65-.15-1.65,0c-1,.15-1.83.35-2.48.6-.6.25-1.15.75-1.65,1.5-.85,1.3-1.27,1.6-1.27.9,0-.25-.28-.19-.83.19s-.82.7-.82.98-.35.49-1.05.64c-.45.15-.67.28-.67.38.3.15.42.38.38.68-.05.3-.23.45-.52.45-.35,0-.45-.13-.3-.38.1-.15.13-.23.08-.23-.4.05-.93.45-1.58,1.2l-.15.15c-.35.5-.52.65-.52.45s-.16-.16-.49.11c-.32.28-.44.51-.34.71.1.2.03.38-.23.53-.1.05-.16.07-.19.07-.02,0-.01-.07.04-.23.2-.3.03-.47-.52-.52-.45-.1-.93-.05-1.42.15-.55.3-.83.54-.83.71s-.18.26-.52.26c-.25,0-.38-.03-.38-.07,0-.05.1-.2.3-.45.15-.25.24-.4.26-.45s-.09,0-.34.15c-.35.2-.73.47-1.12.82-.25.2-.39.3-.41.3s.09-.25.34-.75c.45-.85,1.92-2.1,4.42-3.75l.38-.38s-.2.05-.45.15c-.25.1-.4.12-.45.07,0-.05.2-.3.6-.75.55-.6.95-.9,1.2-.9s.6-.23,1.05-.67c.35-.4,1.16-1.05,2.44-1.95s2.14-1.42,2.59-1.57c.4-.15,1.37-.75,2.93-1.8,1.55-1.05,2.6-1.73,3.15-2.02.85-.4,1.6-1.03,2.25-1.88.15-.3.17-.45.07-.45-.2,0-.16-.21.11-.64.27-.42.49-.64.64-.64.3,0,1.48-.65,3.53-1.95,2.05-1.3,3.07-2.03,3.07-2.18,0-.25-.14-.24-.41.04s-.51.41-.71.41l1.88-1.5c.5-.35,1.05-.72,1.65-1.12,4.35-3,6.55-4.63,6.6-4.88.05-.1-.2-.2-.75-.3-.5-.15-3.65-.3-9.45-.45l-8.7-.3-1.95-.97c-1.25-.65-2.22-1.48-2.92-2.48-.45-.6-.74-1.14-.86-1.61-.13-.47-.24-1.24-.34-2.29-.05-1.1-.02-1.9.08-2.4.1-.5.38-1.22.83-2.17.7-1.35,1.92-2.87,3.67-4.58,4.75-4.7,10.68-8.2,17.77-10.5,2.55-.8,3.94-1.29,4.16-1.46.23-.17.71-.39,1.46-.64l1.12-.38-.23,3.07c-.2,2.1-.33,3.9-.38,5.4-.25,3.65-.52,5.65-.82,6-.2.15-.3.18-.3.08,0-.05.05-.15.15-.3.15-.4.12-.6-.08-.6s-.44.56-.71,1.69c-.28,1.12-.41,2.11-.41,2.96,0,.8-.16.93-.49.38-.33-.55-.41-.95-.26-1.2.05-.05.05-.07,0-.07s-.18.07-.38.23c-.35.3-.47.72-.38,1.27.15.4.16.64.04.71-.13.08-.41-.01-.86-.26-.8-.45-1.47-2.12-2.02-5.02-.25-1.45-.5-2.3-.75-2.55s-.75-.23-1.5.07c-.8.35-1.74.91-2.81,1.69-1.08.78-1.66,1.16-1.76,1.16-.3,0-1.09.54-2.36,1.61s-2.46,2.19-3.56,3.34-1.57,1.8-1.42,1.95c.15.15,1.36.23,3.64.23s3.71.1,4.31.3c.5.15.78.18.83.07l-.08-.15c-.15-.25-.07-.35.23-.3.1,0,.3.02.6.07.8.2,1.68.28,2.62.23.8,0,1.17.08,1.12.23-.45.3-.42.47.08.52.3.05.62,0,.97-.15,1-.4,1.75-.47,2.25-.23.15.1.18.18.08.23-.05.15.05.25.3.3.15.05.35.05.6,0l.83-.07s-.18-.13-.38-.23c-.35-.15-.28-.25.23-.3h.52c1.05,0,1.52.15,1.42.45,0,.1-.13.23-.38.38-.1.05-.1.08,0,.08.15,0,.42-.03.83-.08.8-.1,1.2-.04,1.2.19s.13.26.38.11c.25-.15.71-.01,1.39.41s1.26.94,1.76,1.54c.4.5.65.93.75,1.27.1.35.1,1.15,0,2.4-.05,1.45,0,2.18.15,2.18.05,0,.1-.05.15-.15ZM633.81,756.06c.2-.05.3-.03.3.07-.2.35-.57.38-1.12.08-.3-.2-.32-.38-.07-.52.25-.15.38-.1.38.15s.18.33.52.23ZM644.98,743.31c-1.25.75-2.43,1.42-3.52,2.02l-1.65.9.83-.83c.55-.6.92-.9,1.12-.9s1.57-.74,4.12-2.21c2.55-1.47,3.87-2.16,3.97-2.06.05.05.01.13-.11.23-.13.1-.31.23-.56.38-.25.15-.5.33-.75.52-1.1.6-2.25,1.25-3.45,1.95ZM642.51,750.51l.38.3c-.05-.05-.15-.1-.3-.15-.4-.1-.66-.04-.79.19-.12.23-.31.34-.56.34s-.2-.19.15-.56c.35-.38.72-.41,1.12-.11ZM642.66,748.56c.2-.2.29-.31.26-.34-.02-.02-.21.04-.56.19-.85.5-1,.75-.45.75.2,0,.45-.2.75-.6ZM645.51,749.46c.3-.3.51-.39.64-.26s-.01.26-.41.41c-.25.1-.39.14-.41.11-.03-.02.04-.11.19-.26ZM655.45,743.5c-.23-.03-.55.12-.98.45s-.52.5-.3.52c.23.03.55-.12.98-.45s.52-.5.3-.52ZM660.81,733.19c.05-.1.05-.16,0-.19-.05-.03-.15-.01-.3.04-.45.2-.53.35-.23.45.2,0,.38-.1.52-.3ZM661.15,740.13c-.13-.23-.07-.34.15-.34s.34.11.34.34-.05.34-.15.34-.21-.11-.34-.34ZM665.84,710.91c-.1-.1-.21-.11-.34-.04-.13.07-.25.21-.38.41-.13.2-.19.43-.19.68,0,.6.1.93.3.98s.38-.23.53-.83c.15-.7.17-1.1.07-1.2ZM669.66,713.46c0,.45-.11.67-.34.67s-.34-.23-.34-.67.11-.68.34-.68.34.23.34.68ZM672.73,731.84c.1,0,.35-.23.75-.68.4-.45.47-.67.23-.67s-.5.23-.75.67c-.25.45-.33.68-.23.68ZM674.09,722.09c.6.65.9.85.9.6,0-.05-.25-.3-.75-.75l-.75-.6.6.75Z"/></g><g id="Logo"><path d="M696.2,325.27c-12.25-27.51-15.11-68.83-22.48-99.19-6.41-26.43-17.38-44.9-31.98-67.4-20.11-31-45.69-52.61-72.24-77.74-14.51-13.73-30.63-31.62-47.08-42.67-12.32-8.28-16.7-3.36-26.98,4.72-24.92,19.58-48.4,45.68-71.08,68.06-13.72,13.54-24.95,22.77-36.35,38.94-10.03,14.23-27.85,40.96-32.8,56.95-7.79,25.17-11.2,53.46-16.39,79.38-2.75,13.73-5.18,27.21-11.24,39.96-5.19,10.92-17.07,21.97-10.87,34.53,7.89,15.98,25.42,37.85,36.36,52.78,19.49,26.61,25.11,36.36,44.99,59.46,2.12,2.46,57.64-18.46,110.12-18.46,68.52,0,109.83,26.7,116.41,18.73,19.74-23.89,39.1-49.55,57.13-74.78,5.55-7.77,25.78-34.69,27.07-42.2,1.74-10.17-8.46-21.75-12.61-31.07ZM473.95,137.58c6.53-.14,21.62.21,28.82-.15,2.19-.36,1.86-3.05,1.99-4.75.02-2.21.09-4.77-.42-6.23-1.64-4.86-14.33.69-15.75-4.38-.35-1.26-.33-2.69-.35-4.03.1-3.82-.71-7.98,3.78-8.07,2.31-.16,5.59-.03,7.92-.11,2.93-.08,4.46-.56,4.72-3.55.63-3.03-1.21-8.55,2.65-9.78,2.98-.45,8.22-.79,10.54.53,2.31,2.27.93,6.64,1.54,9.56.22,4.9,7.97,2.81,11.41,3.28,4.82-.23,5.02,2.47,4.97,6.4-.2,2.96.6,5.66-1.49,7.35-3.28,1.35-8.27.3-11.59.79-1.49.09-2.88.87-3.15,2.42-.42,2.5-.54,6.48.1,9.23.5,1.6,2.36,1.41,3.78,1.46,7.37.21,21.5-.42,28.43.26,1.37.6,1.3,1.74,1.46,3.46,0,2.52.36,7.48-.46,9.63l-.03.05c-.6,1.08-1.9.98-3.04,1.03-7.05.2-22.1-.37-29.15.24-1.74.86-1.21,2.31-1.39,4.98,0,2.76-.02,6.73.01,9.52-.14,3.08.86,4.99,3.93,5.59,3.09,1.18,10.54,1.4,11.99,4.43.89,2.29.53,5.26.59,7.74-.06,3.03-.28,5.05-3.93,4.28-3.3-.36-8.64-2.68-11.8-2.03-.94.61-.71,2.05-.79,3.11-.02,5.74.01,19.05-.02,24.52.3,3.74-2.31,3.63-5.76,3.66-2.71-.11-5.75.36-7.83-.67-.94-.73-.78-2.05-.84-3.2-.23-7.66.46-23.3-.3-30.48-1.09-2.42-8.18-2.84-10.98-3.84-2.66-.71-4.18-1.13-4.85-3.14-.68-2.86-.47-7.15-.2-9.67.46-4.1,7.29-.71,10.01-.46,2.03.28,4.99,1.75,5.95-.63.68-2.99.27-6.8.34-9.76-.04-1.7-.06-4.08-2.27-4.11-6.37-.2-20.97-.01-27.85-.08-2.15-.01-3.22-.14-3.63-1.57-.5-2.07-.28-4.06-.34-6.57.07-3.1-.43-6.56,3.29-6.28ZM680.64,347.75c-1.1-.98-1.8-2.26-2.51-3.55-.36-.66-.72-1.32-1.14-1.96-.18-.27-.37-.54-.57-.8-.18-.23-.37-.46-.56-.7-.29-.36-.59-.73-.91-1.11-.39-.46-.8-.95-1.23-1.45-6.63-7.65-17.91-18.72-26.34-26.45-2.2-2.02-4.2-3.81-5.88-5.25-1.67-1.44-3.61-2.66-5.42-3.91.05.79.15,1.57.26,2.35.07.47.15.95.24,1.42.08.41.17.83.26,1.24,1.11,4.87,3.03,9.6,3.84,14.55.01.06.02.12.03.19.01.09.02.19.04.29.84,5.61.57,11.33,1.41,16.93.06.37.11.74.17,1.09.18,1.07.38,2.09.58,3.06.2.97.41,1.89.6,2.77.13.59.26,1.16.38,1.72,1.37,6.43,1.71,11.13-4.84,19.13-7.94,9.7-16.53,11.75-25.68,12.77-6.43.71-13.14.92-20.1,2.9-6.52,1.85-11.7,6.62-15.52,12.59-.27.43-.54.86-.8,1.3-4.4,7.45-6.8,11.77-7.15,19.35,0,.18-.01.37-.01.57,0,2.93.95,7.19.61,9.04-.35,1.89-2.99,3.73-6.08,5.25-.24.12-.49.24-.74.35-.71.33-1.43.64-2.14.93-.22.09-.43.17-.64.26-.55.22-1.1.42-1.63.61-.36.13-.71.25-1.05.36-.01,0-.02,0-.04.01-1.34.45-2.52.79-3.33.98l-3.01-16.26-1.21,17.47-5.04.21-8.79.36c-.99-4.41-1.58-8.97-2.48-13.39-.04-.19-.08-.39-.12-.58,0-.02,0-.05-.01-.08-.12-.6-.24-1.72-1.02-1.58.15,3.85-.04,7.7-.58,11.5-.31,2.19-.74,4.36-1.29,6.5h0l-16.41.09h0l-2.05-5.9-1.35-12.19-2.5,17.98h0c-.25-.02-.58-.03-.99-.04-.14,0-.29,0-.44,0-.29,0-.61,0-.95.01-.02,0-.03,0-.05,0-.34,0-.7.02-1.08.03-.61.02-1.27.04-1.94.06-.42.01-.84.03-1.27.04h-.04c-1.12.04-2.28.06-3.38.07-.22,0-.45,0-.67,0-1.09,0-2.11-.02-2.98-.08-.17-.01-.34-.02-.5-.04-1.13-.1-1.93-.28-2.18-.58-.66-.8-1.11-2.28-1.41-4.09-.01-.06-.02-.12-.03-.19-.33-2.03-.48-4.46-.55-6.78,0-.02,0-.03,0-.05-.01-.46-.03-.92-.04-1.37,0,0,0-.02,0-.03-.05-2.53-.03-4.82-.07-6.17l-3.98,16.9-12.8-1.33c-.22-1.75-.47-3.49-.7-5.23-.05-.35-.09-.69-.13-1.04-.31-2.43-.55-4.86-.57-7.32,0-.35,0-.7,0-1.06.01-.71.04-1.42.1-2.13-.92-.15-.71,1.13-.89,1.81-.32,1.24-.58,2.5-.82,3.76-.64,3.36-1.1,6.77-1.9,10.09-.06.05-.17.07-.34.06-.7-.03-2.27-.55-3.91-1.17-.11-.04-.22-.08-.32-.12-.28-.11-.57-.22-.85-.33-1.68-.67-3.23-1.36-3.74-1.62-1.65-.86-2.86-1.6-3.74-2.29-.29-.23-.55-.45-.77-.67-.33-.33-.59-.66-.79-.98-.26-.43-.42-.87-.5-1.33-.04-.23-.06-.47-.07-.71-.02-.87.14-1.86.3-3.06.18-1.33.36-2.93.3-4.96-.06-1.78-.29-3.75-.64-5.78-.14-.81-.3-1.63-.48-2.46-.8-3.7-1.93-7.43-3.11-10.42-11.2-28.33-32.27-12.34-51.79-21.53-.03-.02-.07-.03-.11-.05-2.4-1.14-4.77-2.58-7.1-4.45-.38-.3-.73-.6-1.08-.9-.14-.12-.29-.24-.42-.36-.79-.69-1.52-1.37-2.19-2.04-.01-.01-.03-.02-.04-.04-.02-.02-.04-.04-.06-.06-.64-.65-1.22-1.29-1.76-1.93-.13-.16-.26-.31-.38-.47-.93-1.16-1.69-2.31-2.3-3.46-.19-.35-.36-.7-.52-1.05-.14-.3-.27-.6-.39-.9-.29-.73-.53-1.47-.73-2.21-.08-.3-.15-.6-.21-.9-.1-.51-.19-1.01-.26-1.52-.06-.46-.11-.93-.14-1.4-.05-.71-.06-1.43-.05-2.16h0c.1-5.22,1.59-10.93,2.56-17.96.3-2.14.31-4.55.4-6.94.06-1.48.14-2.96.35-4.35.4-2.69,1.19-5.25,1.98-7.8,1.07-3.45,2.13-6.87,2.15-10.57,0-.03,0-.05,0-.08l-9.04,6.92c-1.02,1.16-2.08,2.3-3.16,3.41-.81.84-1.64,1.66-2.47,2.47-.56.55-1.13,1.1-1.71,1.64-2.48,2.34-5.03,4.62-7.57,6.9-.13.11-.25.23-.38.34-2.22,1.99-4.43,3.98-6.58,6.03-.05.05-.11.1-.16.15-1.67,1.59-3.29,3.21-4.86,4.88-1.66,1.77-3.5,3.76-4.91,5.93-.85,1.3-1.53,2.67-1.93,4.1-.24.04-.39,0-.5-.07-.01-.01-.02-.03-.03-.04-.17-.18-.17-.52-.14-.87,0-.09.02-.19.03-.28,0-.09.02-.18.02-.26.02-.35.05-.71.1-1.08.21-1.75.71-3.62,1.45-5.58.11-.28.22-.56.33-.85,1.8-4.4,4.76-9.23,8.45-14.2.87-1.17,1.78-2.35,2.73-3.53.36-.45.73-.91,1.11-1.37.44-.53.88-1.06,1.33-1.6.11-.13.21-.25.32-.38.46-.55.94-1.09,1.41-1.64.55-.63,1.11-1.27,1.68-1.9.74-.82,1.49-1.64,2.25-2.46.76-.82,1.53-1.63,2.3-2.44,1.16-1.21,2.35-2.42,3.54-3.61.4-.4.8-.79,1.2-1.18.8-.79,1.6-1.56,2.41-2.33,1.61-1.54,3.22-3.04,4.83-4.5.8-.73,1.6-1.45,2.4-2.15,2.39-2.12,4.74-4.12,7-5.97,1.51-1.23,2.97-2.4,4.38-3.49.35-.27.7-.54,1.05-.8,3.11-2.36,5.91-4.32,8.23-5.75,10.05-6.2,21.23-11.37,33.17-15.49,3.98-1.37,8.05-2.63,12.18-3.77,4.14-1.14,8.35-2.17,12.62-3.07,5.69-1.21,11.49-2.21,17.35-3,2.93-.39,5.88-.74,8.85-1.02,10.38-1.01,20.93-1.37,31.49-1.07,3.02.09,6.03.22,9.05.42,7.53.48,15.04,1.3,22.47,2.46,10.4,1.62,20.63,3.92,30.53,6.89,1.41.42,2.82.86,4.22,1.31,29.4,9.49,55.58,25.08,73.99,47.03,4.49,5.35,9.05,11.36,12.92,17.72,1.94,3.18,3.7,6.46,5.19,9.79,1.49,3.33,2.72,6.71,3.58,10.12h0s0,0,0,0Z"/><path d="M512.59,354.98c.25-4.68-.83-11.61,2.84-14.98,5.58-1.56,15.1,15.65,17.15,19.99,5.13,10.87,11.31,27.83-3.12,34.44-13.45,6.16-14.79-8.09-17.04-17.3-.15-.6-.17-1.81-1.02-1.67-.77,10.24-4.74,25.79-18.11,18.4-16.21-8.96-2.79-35.23,5.2-46.06,4.41-5.97,11.58-13.55,12.89-.95.26,2.53-1,6.57,1.21,8.12Z"/><path d="M490.18,274.73c-24.03,4.41-38.29,2.83-46.53.88-8.96-2.12-40.02-.95-40.02,27.28,0,6.64,3.76,35.11,45.85,31.58,36.42-3.05,46.62-36.54,48.16-44.16,1.19-5.89.52-17.04-7.46-15.57Z"/><path d="M533.13,274.73c24.02,4.41,38.28,2.83,46.51.88,8.95-2.12,40.01-.95,40.01,27.28,0,6.64-3.76,35.11-45.83,31.58-36.4-3.05-46.61-36.54-48.14-44.16-1.19-5.89-.52-17.04,7.45-15.57Z"/></g></svg>