<?xml version="1.0" encoding="UTF-8"?><svg id="a" xmlns="http://www.w3.org/2000/svg" viewBox="0 0 512 512"><g id="b"><rect width="512" height="512" fill="#fff"/><path d="M456.95,332.67c-13.25-29.76-16.34-74.45-24.31-107.29-6.94-28.59-18.8-48.56-34.59-72.91-21.75-33.53-49.42-56.9-78.14-84.08-15.7-14.85-33.14-34.2-50.92-46.15-13.33-8.95-18.06-3.63-29.18,5.11-26.95,21.18-52.35,49.41-76.88,73.62-14.84,14.64-26.98,24.63-39.31,42.13-10.85,15.39-30.12,44.31-35.47,61.6-8.43,27.23-12.11,57.83-17.73,85.86-2.97,14.85-5.6,29.44-12.16,43.22-5.62,11.81-18.46,23.76-11.75,37.35,8.53,17.29,27.5,40.94,39.33,57.09,21.08,28.78,27.16,39.33,48.67,64.31,2.29,2.66,62.35-19.97,119.11-19.97,74.12,0,118.8,28.88,125.92,20.26,21.35-25.84,42.29-53.6,61.79-80.89,6.01-8.41,27.89-37.52,29.28-45.64,1.89-11-9.15-23.53-13.64-33.61ZM216.54,129.65c7.07-.16,23.39.23,31.17-.17,2.37-.39,2.02-3.3,2.15-5.14.02-2.39.1-5.16-.46-6.74-1.78-5.25-15.5.74-17.03-4.74-.38-1.37-.36-2.91-.38-4.36.1-4.13-.77-8.64,4.09-8.72,2.5-.18,6.04-.04,8.56-.12,3.17-.09,4.82-.61,5.11-3.84.69-3.28-1.31-9.25,2.86-10.57,3.23-.49,8.89-.86,11.4.58,2.5,2.45,1.01,7.19,1.67,10.34.24,5.3,8.62,3.04,12.34,3.55,5.21-.25,5.43,2.67,5.37,6.92-.22,3.2.65,6.12-1.61,7.95-3.54,1.46-8.94.32-12.54.86-1.61.09-3.11.94-3.41,2.62-.45,2.7-.59,7.01.11,9.99.55,1.73,2.55,1.53,4.08,1.57,7.98.23,23.26-.45,30.75.28,1.48.65,1.41,1.88,1.58,3.75,0,2.73.39,8.09-.5,10.42l-.03.06c-.65,1.16-2.06,1.06-3.28,1.11-7.63.21-23.91-.4-31.53.26-1.89.93-1.31,2.5-1.51,5.39,0,2.99-.02,7.28.01,10.3-.16,3.33.93,5.39,4.26,6.04,3.34,1.27,11.4,1.52,12.97,4.79.96,2.48.58,5.69.63,8.38-.07,3.28-.31,5.46-4.25,4.63-3.57-.39-9.35-2.9-12.76-2.2-1.02.66-.77,2.22-.86,3.36-.02,6.21.01,20.61-.02,26.53.32,4.05-2.5,3.93-6.23,3.96-2.93-.12-6.22.39-8.47-.73-1.01-.79-.85-2.22-.9-3.46-.25-8.28.5-25.2-.32-32.97-1.18-2.62-8.85-3.07-11.88-4.15-2.87-.77-4.52-1.22-5.25-3.4-.73-3.09-.51-7.73-.22-10.46.49-4.44,7.88-.76,10.83-.49,2.2.3,5.4,1.9,6.44-.69.73-3.24.29-7.36.37-10.56-.05-1.84-.06-4.42-2.45-4.44-6.89-.21-22.69-.02-30.13-.09-2.32-.02-3.48-.16-3.93-1.7-.54-2.24-.31-4.4-.37-7.11.07-3.35-.47-7.1,3.56-6.79ZM440.12,356.99c-1.19-1.06-1.95-2.44-2.72-3.84-.39-.71-.78-1.43-1.24-2.12-.19-.29-.4-.58-.61-.86-.19-.25-.4-.5-.6-.76-.31-.39-.64-.78-.98-1.2-.42-.5-.87-1.03-1.34-1.56-7.18-8.27-19.38-20.25-28.49-28.61-2.38-2.18-4.55-4.12-6.36-5.68-1.81-1.55-3.91-2.88-5.86-4.23.06.85.16,1.7.29,2.54.08.51.16,1.02.26,1.53.09.45.18.89.28,1.34,1.2,5.27,3.28,10.38,4.15,15.74.01.07.03.14.04.2.02.1.03.21.04.31.91,6.07.62,12.25,1.53,18.32.06.4.12.8.19,1.18.19,1.16.41,2.26.63,3.31.22,1.05.44,2.04.65,3,.14.64.28,1.26.41,1.86,1.48,6.96,1.85,12.04-5.24,20.7-8.59,10.49-17.88,12.71-27.78,13.81-6.96.77-14.21.99-21.74,3.13-7.05,2.01-12.66,7.16-16.79,13.62-.3.46-.58.93-.86,1.4-4.76,8.06-7.36,12.73-7.74,20.93,0,.2-.01.4-.01.61,0,3.17,1.02,7.77.66,9.78-.37,2.04-3.23,4.04-6.57,5.68-.26.13-.53.26-.8.38-.76.36-1.54.69-2.32,1.01-.23.09-.47.19-.7.28-.6.23-1.19.45-1.76.66-.39.14-.77.27-1.14.39-.01,0-.03,0-.04.01-1.45.49-2.72.85-3.61,1.06l-3.26-17.59-1.31,18.89-5.45.23-9.51.39c-1.07-4.77-1.71-9.7-2.68-14.49-.04-.21-.08-.42-.13-.63,0-.02-.01-.06-.02-.08-.13-.65-.25-1.86-1.11-1.71.16,4.17-.04,8.33-.62,12.44-.34,2.37-.8,4.71-1.4,7.03h0l-17.75.09h0l-2.22-6.39-1.46-13.18-2.7,19.45h0c-.27-.02-.63-.04-1.07-.04-.15,0-.31,0-.48,0-.32,0-.66,0-1.03.02-.02,0-.03,0-.05,0-.37,0-.76.02-1.17.03-.66.02-1.37.04-2.1.07-.45.01-.91.03-1.38.04h-.04c-1.22.04-2.46.07-3.66.08-.24,0-.48,0-.72,0-1.18,0-2.28-.02-3.22-.08-.19-.01-.37-.03-.54-.04-1.22-.11-2.09-.31-2.36-.63-.71-.86-1.2-2.47-1.52-4.43-.01-.07-.02-.13-.03-.2-.35-2.2-.52-4.82-.6-7.34,0-.02,0-.03,0-.05-.02-.5-.03-.99-.04-1.48,0-.01,0-.02,0-.03-.06-2.74-.03-5.21-.08-6.67l-4.3,18.28-13.84-1.44c-.23-1.9-.51-3.78-.75-5.65-.05-.38-.1-.75-.15-1.13-.33-2.63-.59-5.25-.62-7.92,0-.38,0-.76,0-1.14.01-.76.05-1.53.11-2.3-1-.16-.77,1.22-.96,1.96-.34,1.34-.63,2.7-.89,4.07-.69,3.64-1.19,7.33-2.06,10.91-.06.06-.19.08-.36.07-.76-.03-2.46-.59-4.23-1.27-.12-.04-.23-.09-.35-.13-.31-.12-.61-.24-.92-.36-1.82-.73-3.49-1.47-4.05-1.76-1.79-.93-3.1-1.73-4.05-2.48-.32-.25-.59-.49-.83-.73-.36-.36-.64-.71-.85-1.06-.28-.47-.45-.94-.54-1.44-.04-.25-.07-.51-.07-.77-.03-.94.15-2.01.33-3.31.19-1.44.39-3.17.32-5.37-.06-1.92-.31-4.05-.69-6.25-.15-.88-.33-1.77-.52-2.66-.86-4.01-2.09-8.04-3.37-11.27-12.12-30.64-34.9-13.35-56.02-23.29-.04-.02-.08-.03-.11-.05-2.59-1.23-5.16-2.79-7.68-4.82-.41-.33-.79-.65-1.17-.97-.15-.13-.31-.26-.46-.39-.86-.74-1.65-1.48-2.37-2.21-.01-.01-.03-.03-.04-.04-.02-.02-.04-.04-.06-.06-.69-.7-1.32-1.4-1.9-2.09-.14-.17-.28-.34-.41-.51-1-1.26-1.82-2.5-2.49-3.74-.2-.38-.39-.76-.57-1.14-.15-.33-.29-.65-.42-.98-.32-.79-.58-1.59-.79-2.39-.08-.32-.16-.65-.23-.98-.11-.55-.21-1.1-.28-1.65-.06-.5-.12-1.01-.15-1.52-.05-.77-.06-1.55-.05-2.34h0c.11-5.65,1.72-11.83,2.77-19.43.32-2.31.34-4.92.44-7.51.06-1.61.16-3.2.38-4.71.43-2.91,1.29-5.68,2.15-8.43,1.16-3.73,2.3-7.44,2.33-11.43,0-.03,0-.06,0-.09l-9.78,7.48c-1.11,1.26-2.25,2.49-3.42,3.69-.88.9-1.77,1.79-2.68,2.67-.61.59-1.23,1.19-1.85,1.77-2.68,2.53-5.44,5-8.19,7.46-.14.12-.27.24-.41.37-2.4,2.15-4.79,4.31-7.11,6.52-.06.06-.12.11-.18.17-1.8,1.72-3.56,3.47-5.25,5.27-1.79,1.92-3.79,4.06-5.31,6.41-.91,1.41-1.66,2.89-2.09,4.43-.25.04-.43,0-.54-.08-.01-.01-.02-.03-.03-.04-.19-.19-.19-.56-.15-.94,0-.1.02-.2.03-.3.01-.1.02-.19.02-.28.02-.38.06-.77.11-1.17.23-1.89.77-3.91,1.57-6.03.11-.3.23-.61.36-.92,1.94-4.76,5.15-9.99,9.14-15.36.94-1.27,1.93-2.54,2.95-3.82.39-.49.79-.98,1.2-1.48.47-.58.95-1.15,1.44-1.73.12-.14.23-.27.35-.41.5-.59,1.01-1.18,1.53-1.77.6-.68,1.2-1.37,1.81-2.05.8-.89,1.61-1.78,2.43-2.66.82-.88,1.65-1.76,2.49-2.64,1.26-1.31,2.54-2.61,3.83-3.9.43-.43.86-.86,1.29-1.28.86-.85,1.73-1.69,2.6-2.52,1.74-1.66,3.49-3.29,5.22-4.87.87-.79,1.73-1.57,2.6-2.33,2.58-2.29,5.13-4.45,7.57-6.45,1.63-1.33,3.22-2.6,4.74-3.78.38-.29.76-.58,1.13-.87,3.36-2.56,6.39-4.67,8.91-6.22,10.87-6.7,22.96-12.3,35.88-16.76,4.31-1.49,8.7-2.85,13.18-4.08,4.48-1.23,9.03-2.34,13.65-3.32,6.16-1.31,12.42-2.39,18.77-3.24,3.17-.43,6.37-.8,9.57-1.11,11.23-1.09,22.64-1.48,34.06-1.16,3.26.09,6.53.24,9.79.45,8.15.52,16.27,1.41,24.31,2.66,11.25,1.76,22.31,4.24,33.02,7.45,1.53.46,3.05.93,4.57,1.42,31.8,10.26,60.12,27.13,80.03,50.87,4.86,5.79,9.79,12.29,13.98,19.17,2.09,3.44,4,6.99,5.62,10.59,1.62,3.6,2.94,7.26,3.87,10.94h0s0,0,0,0Z"/><path d="M258.34,364.8c.27-5.06-.9-12.56,3.07-16.2,6.03-1.69,16.33,16.93,18.55,21.63,5.55,11.76,12.23,30.11-3.37,37.25-14.55,6.66-16-8.75-18.43-18.71-.16-.65-.19-1.96-1.11-1.81-.84,11.07-5.13,27.9-19.59,19.9-17.54-9.69-3.01-38.11,5.63-49.82,4.77-6.46,12.53-14.66,13.94-1.02.28,2.73-1.08,7.1,1.31,8.78Z"/><path d="M234.11,278c-25.99,4.77-41.42,3.06-50.33.95-9.69-2.29-43.29-1.03-43.29,29.5,0,7.18,4.07,37.98,49.59,34.16,39.39-3.3,50.43-39.53,52.09-47.77,1.28-6.38.56-18.43-8.06-16.84Z"/><path d="M280.56,278c25.98,4.77,41.4,3.06,50.31.95,9.69-2.29,43.28-1.03,43.28,29.5,0,7.18-4.07,37.98-49.58,34.16-39.38-3.3-50.41-39.53-52.07-47.77-1.28-6.38-.56-18.43,8.06-16.84Z"/></g></svg>